<svg width="10" height="4" viewBox="0 0 10 4" fill="none" xmlns="http://www.w3.org/2000/svg">
<path d="M1.39993 0.266663C1.09936 0.266663 0.811089 0.386067 0.598547 0.598608C0.386006 0.81115 0.266602 1.09942 0.266602 1.4V2.53333C0.266602 2.83391 0.386006 3.12218 0.598547 3.33472C0.811089 3.54726 1.09936 3.66666 1.39993 3.66666H8.19993C8.50051 3.66666 8.78878 3.54726 9.00132 3.33472C9.21386 3.12218 9.33327 2.83391 9.33327 2.53333V1.4C9.33327 1.09942 9.21386 0.81115 9.00132 0.598608C8.78878 0.386067 8.50051 0.266663 8.19993 0.266663H1.39993ZM8.19993 1.4V2.53333H1.39993V1.4H8.19993Z" fill="#939292"/>
</svg>
