<svg width="19" height="18" viewBox="0 0 19 18" fill="none" xmlns="http://www.w3.org/2000/svg">
<path fill-rule="evenodd" clip-rule="evenodd" d="M7.70329 14.2474L8.69751 17.29L9.19694 15.4838L8.95264 15.2036C8.84285 15.0362 8.81812 14.8897 8.87842 14.7625C9.01139 14.4889 9.28508 14.5404 9.54175 14.5404C9.81079 14.5404 10.1432 14.4873 10.2267 14.8382C10.2561 14.9557 10.2205 15.0781 10.1417 15.2036L9.89583 15.4838L10.3953 17.29L11.2952 14.2474C11.9446 14.8559 13.865 14.9767 14.5809 15.392C14.8066 15.524 15.0107 15.6898 15.1762 15.9152C15.6215 16.5286 15.654 16.5688 15.7684 17.3303C15.7313 17.7311 15.5133 17.963 15.0819 17.9984H3.91813C3.48674 17.9646 3.26872 17.7328 3.23161 17.3303C3.34603 16.5688 3.38005 16.5286 3.82381 15.9152C3.98771 15.6882 4.19181 15.5224 4.41911 15.392C5.13346 14.9767 7.05542 14.8543 7.70329 14.2474ZM4.32633 14.0461C4.31397 14.0204 4.30005 13.9979 4.28459 13.9753C4.21501 13.8562 4.14543 13.7387 4.0743 13.6034C4.00472 13.4569 3.93514 13.3201 3.87175 13.1929C3.8099 13.0561 3.74959 12.9096 3.69702 12.7647C3.65373 12.6375 3.60116 12.4926 3.54858 12.3188C3.47127 12.0724 3.25016 11.9195 3.01514 11.9195H1.50293C1.45036 11.9195 1.39933 11.9115 1.36222 11.8921C1.32821 11.8728 1.28491 11.8471 1.25863 11.8116C1.22461 11.7746 1.19678 11.7392 1.18132 11.7038C1.16276 11.6684 1.15503 11.612 1.15503 11.5589V9.5707C1.15503 9.51596 1.16276 9.47089 1.17358 9.43386C1.19214 9.39683 1.21688 9.35337 1.26172 9.30668C1.29574 9.27126 1.3313 9.24228 1.36532 9.23424C1.40088 9.21492 1.45345 9.20687 1.50448 9.20687H2.89453C3.1744 9.20687 3.40169 8.99597 3.45426 8.72391C3.48828 8.56936 3.52384 8.42447 3.55786 8.29568C3.60116 8.14918 3.646 8.01234 3.69857 7.86745C3.75114 7.73061 3.80216 7.58412 3.87329 7.44889C3.93514 7.30239 4.00472 7.17682 4.06502 7.04964C4.18717 6.81299 4.14233 6.53931 3.96916 6.359L2.88525 5.22082C2.87752 5.21277 2.87752 5.21277 2.8667 5.21277C2.83268 5.17735 2.80485 5.14033 2.78939 5.10491C2.77083 5.06949 2.77083 5.03247 2.77083 4.97773C2.77083 4.92299 2.77856 4.87792 2.79712 4.84089C2.81567 4.79581 2.84041 4.7604 2.88525 4.71371L4.22274 3.32922C4.26603 3.28414 4.30005 3.25677 4.34489 3.23746C4.38045 3.21814 4.4222 3.21009 4.47632 3.21009C4.52889 3.21009 4.57218 3.21814 4.60775 3.23746C4.64331 3.25677 4.68506 3.28253 4.72217 3.31795H4.7299L5.71794 4.34666C5.90967 4.54628 6.21582 4.57365 6.43538 4.41105C6.5498 4.33861 6.66268 4.26617 6.79256 4.19211C6.93172 4.11967 7.0647 4.04722 7.18685 3.98122C7.31828 3.91682 7.45898 3.85404 7.59814 3.7993C7.7203 3.75423 7.85946 3.69949 8.02645 3.64475C8.26302 3.56426 8.40991 3.33405 8.40991 3.08935V1.51167C8.40991 1.45694 8.41764 1.40381 8.4362 1.36517C8.45475 1.32976 8.47949 1.29273 8.50578 1.25731C8.54134 1.22189 8.57536 1.19292 8.60938 1.18487C8.64339 1.16555 8.69751 1.1575 8.75008 1.1575H10.0938H10.1092H10.2468C10.2994 1.1575 10.3504 1.16555 10.3875 1.18487C10.4215 1.19292 10.4571 1.22189 10.4911 1.25731C10.5174 1.29273 10.5437 1.32976 10.5607 1.36517C10.5793 1.40059 10.587 1.45694 10.587 1.51167V3.08774C10.587 3.33405 10.7354 3.56104 10.9705 3.64314C11.1359 3.69788 11.2766 3.75101 11.3988 3.79769C11.5395 3.85243 11.6786 3.91682 11.8101 3.97961C11.9322 4.044 12.0636 4.11645 12.2043 4.1905C12.3358 4.26295 12.4486 4.33539 12.5615 4.40944C12.7795 4.57365 13.0857 4.54628 13.279 4.34505L14.267 3.31634H14.2747C14.3088 3.28092 14.3521 3.25195 14.3892 3.23585C14.4232 3.21653 14.4665 3.20848 14.5206 3.20848C14.5732 3.20848 14.6165 3.21653 14.652 3.23585C14.6969 3.25516 14.7293 3.28092 14.7742 3.32761L16.1117 4.7121C16.1549 4.75718 16.1812 4.79259 16.1998 4.83928C16.2183 4.8747 16.2261 4.91977 16.2261 4.97612C16.2261 5.03086 16.2261 5.06788 16.2075 5.1033C16.189 5.14033 16.1642 5.17574 16.1302 5.21116C16.1225 5.21116 16.1225 5.21116 16.1117 5.21921L15.0278 6.35739C14.853 6.53931 14.8097 6.81299 14.9319 7.04803C14.9937 7.17521 15.0633 7.30239 15.1236 7.44728C15.1932 7.58412 15.2458 7.73061 15.2983 7.86584C15.3509 8.01073 15.3942 8.14918 15.439 8.29407C15.4731 8.42125 15.5086 8.56614 15.5426 8.7223C15.5952 8.99436 15.8225 9.20526 16.1024 9.20526H17.4909C17.5435 9.20526 17.5945 9.21331 17.6316 9.23263C17.6656 9.24067 17.7012 9.26804 17.7352 9.30507C17.78 9.35176 17.8048 9.39683 17.8233 9.43225C17.8311 9.46767 17.8419 9.51274 17.8419 9.56909V11.5541C17.8419 11.6088 17.8341 11.6619 17.8156 11.7006C17.797 11.7376 17.7708 11.773 17.7383 11.8084C17.712 11.8438 17.6687 11.8728 17.6347 11.8889C17.5991 11.9082 17.5466 11.9163 17.4955 11.9163H15.9818C15.7452 11.9163 15.5272 12.0708 15.4483 12.3155C15.3958 12.4878 15.3447 12.6343 15.2999 12.7615C15.2473 12.908 15.1855 13.0529 15.1252 13.1897C14.9937 13.4585 14.8669 13.7161 14.7139 13.9721C14.6984 13.9946 14.6845 14.0172 14.6721 14.0429H15.9957C16.0514 13.927 16.107 13.8014 16.1658 13.6727C16.2354 13.5085 16.3049 13.3459 16.3683 13.1816C16.3761 13.1543 16.3946 13.1173 16.4039 13.0899H17.5234C17.7244 13.0899 17.9176 13.0545 18.0908 12.982C18.2655 12.9096 18.4325 12.7904 18.5732 12.6456C18.7139 12.5007 18.8268 12.3349 18.8964 12.1433C18.966 11.9517 19 11.7601 19 11.5525V9.56909C19 9.36946 18.9567 9.16984 18.8856 8.98631C18.816 8.8044 18.7109 8.64019 18.5717 8.4953L18.564 8.48726C18.4233 8.34076 18.2655 8.22323 18.0924 8.14918C17.9176 8.06869 17.7244 8.03005 17.5249 8.03005H16.5709C16.5709 8.00268 16.5632 7.98497 16.5523 7.95761C16.4998 7.78535 16.4487 7.61148 16.3869 7.44728C16.3173 7.27502 16.2555 7.1092 16.1859 6.95626C16.1781 6.93695 16.1596 6.91119 16.1519 6.88382L16.9404 6.05474C17.0889 5.9179 17.194 5.7553 17.2713 5.57177C17.3409 5.38986 17.3857 5.18862 17.3857 4.98095C17.3857 4.77006 17.3517 4.5817 17.2713 4.39013C17.194 4.20821 17.0873 4.044 16.9482 3.89911H16.9404L15.6029 2.51462C15.4638 2.36973 15.3045 2.26026 15.1205 2.17816C14.9365 2.09767 14.7525 2.05903 14.5531 2.05903C14.3613 2.05903 14.1696 2.09445 13.9856 2.17816C13.8016 2.2506 13.6439 2.36973 13.5032 2.51462L12.8213 3.21653L12.7687 3.18916C12.628 3.10867 12.4703 3.03461 12.3049 2.95251C12.1471 2.88006 11.991 2.80762 11.8333 2.74162C11.807 2.73357 11.7714 2.71425 11.7451 2.70459V1.53743C11.7451 1.32654 11.7111 1.12691 11.6415 0.946606C11.5719 0.76308 11.4575 0.590824 11.3184 0.444325C11.1699 0.297827 11.0122 0.180306 10.8359 0.107862C10.6535 0.0354172 10.4695 0 10.2669 0H9.57731H9.42269H8.73307C8.53052 0 8.34961 0.0354172 8.16561 0.107862C7.99243 0.180306 7.83317 0.299437 7.68319 0.444325C7.54248 0.590824 7.42961 0.76308 7.36003 0.946606C7.29045 1.12691 7.25643 1.32976 7.25643 1.53743V2.70298C7.23014 2.71103 7.19458 2.73035 7.16829 2.74001C7.01058 2.8044 6.85441 2.87684 6.6967 2.9509C6.53125 3.03139 6.37354 3.10545 6.23283 3.18755L6.18026 3.21492L5.49837 2.51301C5.35921 2.36812 5.19995 2.24899 5.01595 2.17655C4.83195 2.09606 4.64022 2.05742 4.44849 2.05742C4.24593 2.05742 4.06502 2.09284 3.88102 2.17655C3.69702 2.25704 3.53931 2.36812 3.3986 2.51301L2.06112 3.8975H2.05339C1.91423 4.04239 1.80908 4.20821 1.73022 4.38852C1.65291 4.57848 1.6158 4.77006 1.6158 4.97773C1.6158 5.18862 1.6591 5.38825 1.73022 5.56855C1.80754 5.75047 1.91423 5.91468 2.06266 6.05152L2.84969 6.8806C2.84196 6.90797 2.8234 6.93534 2.81567 6.95304C2.74609 7.10759 2.68424 7.2718 2.61312 7.44406C2.55127 7.60826 2.4987 7.78052 2.44767 7.95439C2.43994 7.98175 2.42912 7.99946 2.42912 8.02683H1.47819C1.27564 8.02683 1.0839 8.06386 0.910726 8.14596C0.736003 8.2184 0.578288 8.33754 0.439128 8.48242L0.431396 8.49047C0.29069 8.63536 0.187093 8.80118 0.117513 8.98149C0.0432943 9.16662 0 9.36946 0 9.56909V11.5525C0 11.7633 0.0340169 11.9517 0.103597 12.1433C0.173177 12.3349 0.287598 12.4991 0.426758 12.6456C0.565918 12.7921 0.73291 12.9096 0.90918 12.982C1.0839 13.0545 1.27718 13.0899 1.47664 13.0899H2.59611C2.60384 13.1173 2.6224 13.1543 2.63167 13.1816C2.69352 13.3459 2.7631 13.5085 2.83423 13.6727C2.89453 13.8031 2.94865 13.9286 3.00431 14.0429H4.32633V14.0461ZM7.25334 9.89428C7.12964 9.89911 7.03687 9.92648 6.97347 9.96995C6.93636 9.99571 6.91008 10.0279 6.89307 10.0665C6.87297 10.1084 6.86523 10.1615 6.86678 10.2211C6.87142 10.3982 6.9611 10.6268 7.13119 10.8908L7.13273 10.8956L7.68783 11.8149C7.91048 12.1835 8.14396 12.5602 8.43311 12.8355C8.71143 13.1012 9.05005 13.2798 9.49845 13.2815C9.98242 13.2831 10.3381 13.0963 10.6241 12.8146C10.9225 12.5232 11.1591 12.124 11.3926 11.7231L12.0173 10.6509C12.1332 10.374 12.1765 10.1889 12.1502 10.0794C12.1332 10.015 12.0652 9.98283 11.9492 9.978C11.9245 9.97639 11.8997 9.97639 11.8735 9.97639C11.8456 9.978 11.8162 9.97961 11.7853 9.98122C11.7683 9.98283 11.7528 9.98122 11.7374 9.978C11.6817 9.98122 11.6245 9.97639 11.5658 9.96834L11.7791 8.98149C10.6365 8.967 9.85254 8.75932 8.9279 8.14274C8.62329 7.94151 8.53206 7.70968 8.22746 7.73222C7.99862 7.7773 7.80534 7.88516 7.65072 8.05742C7.50383 8.22163 7.3925 8.44701 7.31982 8.73517L7.44198 9.8975C7.37703 9.90555 7.31364 9.90233 7.25334 9.89428ZM12.1657 9.68661C12.3203 9.73491 12.4193 9.83794 12.4579 10.0021C12.5028 10.1857 12.4533 10.4416 12.3064 10.791C12.3033 10.7974 12.3002 10.8039 12.2971 10.8103L11.6647 11.8954C11.4204 12.3139 11.173 12.7325 10.8421 13.0545C10.5004 13.3877 10.0783 13.6099 9.50155 13.6083C8.96346 13.6067 8.55835 13.3925 8.22591 13.0754C7.9043 12.7695 7.65845 12.3751 7.42497 11.9871L6.86987 11.0679C6.66732 10.7523 6.56217 10.4642 6.55444 10.2275C6.55135 10.1164 6.56991 10.015 6.60856 9.92648C6.65031 9.83311 6.7137 9.75583 6.79875 9.69627C6.83895 9.6689 6.88379 9.64475 6.93327 9.62544C6.89771 9.12799 6.88379 8.49852 6.90698 7.97209C6.91935 7.84813 6.941 7.72256 6.97502 7.59699C7.11727 7.06896 7.4729 6.64395 7.91357 6.35256C8.0682 6.24953 8.23828 6.16421 8.41919 6.09659C9.48454 5.69251 10.8993 5.91307 11.657 6.76469C11.9647 7.11242 12.1595 7.57285 12.2013 8.18138L12.1657 9.68661Z" fill="#939292"/>
</svg>
