<svg width="21" height="21" viewBox="0 0 21 21" fill="none" xmlns="http://www.w3.org/2000/svg">
<path d="M11.8658 15.8375C11.5886 16.151 11.2906 16.4443 10.974 16.7155C11.0646 16.7032 11.1551 16.6874 11.2457 16.6698C11.4905 16.6197 11.7293 16.5426 11.958 16.4398C12.0161 16.4152 12.0742 16.3871 12.1289 16.3608C12.1694 16.4147 12.2165 16.4631 12.2689 16.5048C12.3206 16.5487 12.3781 16.5847 12.4398 16.6119C12.327 16.6734 12.2109 16.7295 12.0981 16.7875C11.8453 16.8976 11.5819 16.98 11.3123 17.0333C10.7669 17.1434 10.2058 17.1434 9.66038 17.0333C9.39729 16.979 9.14029 16.8972 8.89335 16.7892C8.89 16.7902 8.88645 16.7902 8.8831 16.7892C8.63934 16.681 8.40551 16.5506 8.18441 16.3994C7.9653 16.2502 7.76153 16.0784 7.57626 15.8867C7.38996 15.6972 7.22335 15.4883 7.07915 15.2633C6.93125 15.0363 6.80374 14.7959 6.6982 14.5451C6.59202 14.2878 6.51133 14.0201 6.45733 13.7462C6.405 13.4661 6.37869 13.1815 6.37875 12.8963C6.37848 12.6115 6.40537 12.3275 6.45904 12.0481C6.51165 11.7776 6.59122 11.5134 6.69649 11.2597L6.69534 11.2544L6.69649 11.2492C6.80101 10.9977 6.92796 10.7566 7.07573 10.5292C7.22096 10.3045 7.3881 10.0957 7.57455 9.90584C7.75841 9.71327 7.96171 9.54138 8.181 9.3931C8.40235 9.23837 8.63743 9.1055 8.8831 8.99625C9.13244 8.88551 9.39238 8.80194 9.65867 8.7469C9.93098 8.69165 10.2079 8.66401 10.4855 8.66437C10.7626 8.66379 11.039 8.69203 11.3106 8.74866C11.5738 8.80156 11.8309 8.88278 12.0776 8.99098H12.0879C12.3317 9.10084 12.566 9.23184 12.7883 9.38256C13.0064 9.53178 13.2095 9.70295 13.3947 9.89355C13.5806 10.0834 13.7472 10.2923 13.8918 10.5169C14.0416 10.7446 14.1703 10.9862 14.2762 11.2386C14.384 11.4969 14.4658 11.7658 14.5205 12.0411C14.5514 12.1977 14.5736 12.356 14.5871 12.5152L14.2147 12.4134C14.2027 12.3133 14.1873 12.2132 14.1686 12.1149C14.1201 11.866 14.0469 11.623 13.9499 11.3896C13.889 11.2426 13.8194 11.0995 13.7415 10.9612H12.5457C12.7489 11.3116 12.9041 11.6892 13.0069 12.0832L12.602 11.9726C12.4855 11.6158 12.3247 11.2759 12.1237 10.9612H10.6683V11.6495C10.6411 11.6652 10.6154 11.6834 10.5914 11.704C10.5726 11.7198 10.5521 11.7373 10.535 11.7549C10.511 11.7808 10.4887 11.8084 10.4684 11.8374C10.4369 11.8854 10.4117 11.9373 10.3932 11.9919C10.3739 12.0485 10.3624 12.1076 10.3591 12.1675C10.3531 12.2147 10.3531 12.2626 10.3591 12.3098C10.3655 12.349 10.3747 12.3877 10.3864 12.4257V12.4362C10.3868 12.4438 10.3868 12.4514 10.3864 12.459C10.3894 12.4674 10.3928 12.4756 10.3966 12.4836L10.6546 13.0824V14.8261H11.4114L11.5702 15.1966H10.6683V16.4995C11.0417 16.1881 11.3886 15.8444 11.7052 15.4723L11.8658 15.8463V15.8375ZM4.32197 10.2957C4.29703 10.3579 4.25999 10.4143 4.21312 10.4614C4.16625 10.5084 4.11053 10.5452 4.04938 10.5694C3.98823 10.5935 3.92292 10.6046 3.85745 10.6019C3.79199 10.5993 3.72774 10.5829 3.66863 10.5539C3.60953 10.5248 3.55681 10.4836 3.51371 10.4329C3.4706 10.3822 3.43802 10.323 3.41794 10.2589C3.39787 10.1948 3.39073 10.1271 3.39695 10.0601C3.40318 9.99304 3.42265 9.92801 3.45416 9.86897C3.96161 8.77948 4.69863 7.81975 5.61173 7.05941C5.71148 6.98569 5.83486 6.95393 5.95664 6.97063C6.07842 6.98733 6.18939 7.05122 6.26685 7.14924C6.34432 7.24726 6.38242 7.372 6.37337 7.49794C6.36432 7.62388 6.30881 7.74151 6.21817 7.82677C5.41479 8.49397 4.76688 9.33756 4.32197 10.2957ZM16.4508 16.3503C16.8779 17.6409 18.0976 17.6058 18.4734 16.3503C18.8407 16.6892 19.9221 16.7559 20.3252 16.9859C20.4575 17.0578 20.5738 17.157 20.6669 17.2774C20.8192 17.4991 20.9059 17.7613 20.9163 18.0325L21 18.698C20.9989 18.7488 20.988 18.7989 20.9678 18.8453C20.9476 18.8916 20.9185 18.9334 20.8824 18.9681C20.8463 19.0028 20.8038 19.0297 20.7574 19.0472C20.711 19.0648 20.6616 19.0726 20.6122 19.0703H14.3155C14.2662 19.0724 14.2171 19.0644 14.1708 19.0467C14.1246 19.0291 14.0823 19.0021 14.0464 18.9675C14.0104 18.9328 13.9816 18.8911 13.9615 18.8448C13.9414 18.7986 13.9305 18.7486 13.9294 18.698L14.008 18.0342C14.0198 17.7631 14.1069 17.501 14.2591 17.2792C14.3522 17.1588 14.4685 17.0595 14.6007 16.9877C15.0056 16.7559 16.087 16.6892 16.4525 16.3503H16.4508ZM2.52144 16.3503C2.9468 17.6409 4.16823 17.6058 4.54405 16.3503C4.90962 16.6892 5.99097 16.7559 6.39413 16.9859C6.52637 17.0578 6.6427 17.157 6.73578 17.2774C6.88813 17.4991 6.97476 17.7613 6.98519 18.0325L7.0689 18.698C7.06781 18.7486 7.0569 18.7986 7.03681 18.8448C7.01672 18.8911 6.98786 18.9328 6.95191 18.9675C6.91596 19.0021 6.87364 19.0291 6.82744 19.0467C6.78124 19.0644 6.73208 19.0724 6.68283 19.0703H0.387782C0.338534 19.0726 0.289324 19.0648 0.243033 19.0474C0.196741 19.03 0.154298 19.0032 0.118188 18.9687C0.0820775 18.9342 0.0530251 18.8927 0.0327313 18.8465C0.0124375 18.8003 0.00130998 18.7504 0 18.6997L0.0837062 18.0342C0.0966522 17.7622 0.186273 17.4998 0.341658 17.2792C0.434738 17.1588 0.551068 17.0595 0.683316 16.9877C1.08647 16.7559 2.16953 16.6892 2.5351 16.3503H2.52144ZM2.25323 14.2326C2.29648 14.2431 2.34152 14.2431 2.38477 14.2326L2.30619 13.7058C2.3372 13.5665 2.4005 13.437 2.49069 13.3282C2.57759 13.2352 2.69146 13.1736 2.81526 13.1526C2.98609 13.1403 3.04076 13.2685 3.20988 13.3827C3.68488 13.706 4.2463 13.8687 4.81567 13.848L4.73538 14.1395C4.72315 14.158 4.7177 14.1804 4.72 14.2027C4.72 14.2027 4.72 14.2027 4.72 14.215L4.70975 14.2712H4.761C4.77779 14.2821 4.79759 14.287 4.81738 14.2852C4.92841 14.2747 4.99845 14.2852 5.01554 14.3256C5.03262 14.366 5.01554 14.4837 4.9455 14.6557L4.5953 15.2493C4.47812 15.4706 4.33277 15.6749 4.1631 15.8568C4.07926 15.9407 3.98009 16.0067 3.87131 16.051C3.76254 16.0953 3.64631 16.117 3.52933 16.115C3.30563 16.1163 3.09033 16.0274 2.92972 15.8674C2.76693 15.6977 2.62625 15.5071 2.51119 15.3002L2.19857 14.7874C2.1184 14.6787 2.06718 14.5504 2.04995 14.4152C2.04794 14.3858 2.05262 14.3563 2.06361 14.3291C2.07316 14.307 2.08931 14.2885 2.10974 14.2765C2.15372 14.2479 2.20464 14.2327 2.25665 14.2326H2.25323ZM5.03262 14.1114L5.05141 13.409C5.04209 13.1179 4.9346 12.8392 4.74734 12.6206C4.32026 12.1447 3.5242 12.0235 2.92117 12.2465C2.82191 12.2832 2.72682 12.3309 2.6376 12.3888C2.38268 12.5472 2.19445 12.7976 2.10974 13.0912C2.09156 13.1597 2.07842 13.2296 2.07045 13.3001C2.05836 13.5653 2.0635 13.8311 2.08582 14.0956C2.0588 14.1068 2.03303 14.1209 2.00895 14.1377C1.96134 14.1691 1.92387 14.2144 1.90133 14.2677C1.87731 14.3228 1.86676 14.383 1.87058 14.4433C1.88453 14.6127 1.94364 14.7749 2.04141 14.9121L2.35402 15.4231C2.47793 15.6439 2.62956 15.847 2.80501 16.0272C2.99814 16.2194 3.25704 16.326 3.52591 16.3239C3.66569 16.3266 3.80458 16.3006 3.9345 16.2475C4.06443 16.1945 4.18278 16.1154 4.28268 16.0149C4.465 15.8218 4.62128 15.6045 4.74734 15.3687L5.10949 14.7506V14.7383C5.20687 14.51 5.22737 14.3537 5.17782 14.2484C5.16295 14.2173 5.14188 14.1899 5.11597 14.1678C5.09007 14.1457 5.05992 14.1295 5.0275 14.1202L5.03262 14.1114ZM9.44001 2.10757C9.48161 2.11735 9.52482 2.11735 9.56642 2.10757L9.48613 1.58078C9.51512 1.44092 9.57933 1.31134 9.67233 1.205C9.75877 1.11134 9.87286 1.04962 9.99691 1.0294C10.1677 1.01711 10.2207 1.1453 10.3915 1.25768C10.8665 1.58103 11.428 1.74372 11.9973 1.72301L11.917 2.0145C11.9052 2.03322 11.8998 2.05547 11.9017 2.07772C11.9017 2.07772 11.9017 2.0865 11.9017 2.09001L11.8914 2.14796H11.9409C11.9583 2.15912 11.9787 2.16407 11.999 2.162C12.1101 2.15147 12.1699 2.162 12.1972 2.19888C12.2245 2.23576 12.1972 2.35867 12.1271 2.529L11.7872 3.11725C11.6693 3.33803 11.5234 3.54175 11.3533 3.72306C11.2699 3.80713 11.1711 3.87327 11.0626 3.91759C10.954 3.96191 10.838 3.98353 10.7212 3.98119C10.4975 3.98256 10.2822 3.89366 10.1216 3.7336C9.9552 3.56352 9.8121 3.37093 9.69625 3.16115L9.38363 2.64841C9.30346 2.54218 9.25164 2.41629 9.2333 2.28317C9.23142 2.25379 9.2361 2.22436 9.24697 2.19712C9.25596 2.17562 9.27156 2.15773 9.29138 2.1462C9.33601 2.1177 9.38747 2.1025 9.44001 2.1023V2.10757ZM9.70479 4.21474C10.1319 5.50538 11.3516 5.47201 11.7291 4.21474C12.0947 4.55364 13.1777 4.62212 13.5792 4.85215C13.712 4.92245 13.8285 5.02126 13.9208 5.14189C14.0732 5.36353 14.1598 5.62579 14.1703 5.89696L14.254 6.56423C14.2524 6.61481 14.2411 6.66458 14.2208 6.71066C14.2004 6.75673 14.1713 6.7982 14.1353 6.83265C14.0992 6.86711 14.0569 6.89387 14.0107 6.91139C13.9645 6.92892 13.9154 6.93685 13.8662 6.93474H7.57285C7.52365 6.93685 7.47454 6.92892 7.42835 6.91139C7.38216 6.89387 7.33981 6.86711 7.30375 6.83265C7.26768 6.7982 7.23863 6.75673 7.21826 6.71066C7.19788 6.66458 7.1866 6.61481 7.18506 6.56423L7.26877 5.89696C7.27858 5.62703 7.36465 5.36588 7.51647 5.1454C7.60873 5.02466 7.72527 4.92582 7.85813 4.85567C8.25958 4.62563 9.34434 4.55715 9.70821 4.21825L9.70479 4.21474ZM12.2194 1.98114L12.2382 1.27875C12.2287 0.987359 12.1205 0.708516 11.9324 0.49032C11.5053 0.000403583 10.7093 -0.113735 10.1079 0.109274C10.008 0.145599 9.9123 0.193307 9.82266 0.251508C9.57007 0.406911 9.38212 0.652627 9.2948 0.941604C9.27651 1.01003 9.26394 1.07994 9.25722 1.15057C9.24542 1.41633 9.24999 1.6826 9.27089 1.94778C9.24379 1.95804 9.21798 1.9716 9.19401 1.98816C9.14762 2.02097 9.1105 2.0658 9.08639 2.11811C9.06356 2.16989 9.05247 2.22633 9.05393 2.28317C9.07039 2.45349 9.13248 2.61579 9.2333 2.75201L9.54592 3.263C9.66967 3.48333 9.82196 3.68535 9.99862 3.86354C10.1917 4.05582 10.4507 4.1624 10.7195 4.1603C10.8585 4.16458 10.9969 4.14056 11.1267 4.08963C11.2566 4.0387 11.3754 3.96186 11.4763 3.86354C11.6585 3.67077 11.8142 3.45337 11.9392 3.21734L12.2997 2.60978V2.59924C12.3971 2.37097 12.4193 2.21293 12.368 2.10757C12.3534 2.07685 12.3326 2.04968 12.307 2.02788C12.2813 2.00608 12.2515 1.99015 12.2194 1.98114ZM16.1826 14.2326C16.1317 14.2332 16.0817 14.247 16.0374 14.2729C16.0186 14.2865 16.0034 14.3046 15.993 14.3256C15.9815 14.3527 15.9768 14.3823 15.9793 14.4117C15.9955 14.5467 16.0469 14.6747 16.128 14.7822L16.4406 15.2949C16.5567 15.5016 16.6979 15.6921 16.8608 15.8621C17.0214 16.0222 17.2367 16.1111 17.4604 16.1097C17.6966 16.1133 17.9245 16.0205 18.0942 15.8516C18.2637 15.6695 18.4091 15.4652 18.5264 15.244L18.8783 14.6487C18.9518 14.4731 18.974 14.3695 18.9483 14.3186C18.9227 14.2677 18.8612 14.2694 18.7502 14.2782C18.7299 14.2797 18.7096 14.2748 18.6921 14.2642H18.6426L18.6528 14.208C18.6519 14.2039 18.6519 14.1997 18.6528 14.1957C18.6505 14.1734 18.656 14.151 18.6682 14.1325L18.7485 13.841C18.1792 13.8607 17.6181 13.6981 17.1427 13.3756C16.9719 13.2615 16.9206 13.1333 16.7481 13.1456C16.6245 13.1673 16.5108 13.2288 16.4235 13.3212C16.3317 13.4284 16.2677 13.5576 16.2373 13.697L16.3176 14.2238C16.2733 14.2352 16.2269 14.2352 16.1826 14.2238V14.2326ZM18.962 14.1114C18.9943 14.1199 19.0244 14.1356 19.0501 14.1574C19.0758 14.1793 19.0965 14.2068 19.1106 14.2378C19.1619 14.3432 19.1414 14.5012 19.044 14.7277V14.74L18.687 15.3423C18.5612 15.5779 18.4056 15.7952 18.224 15.9885C18.1244 16.0894 18.006 16.1687 17.8761 16.2218C17.7461 16.2748 17.6071 16.3006 17.4673 16.2976C17.1966 16.3011 16.9356 16.1944 16.7412 16.0008C16.5656 15.8202 16.414 15.6165 16.2902 15.395L15.9776 14.8858C15.8815 14.7477 15.8226 14.5859 15.8068 14.4169C15.8027 14.3565 15.8139 14.296 15.8393 14.2413C15.8628 14.1886 15.9 14.1437 15.9469 14.1114C15.971 14.0956 15.9961 14.0815 16.022 14.0692C16.0003 13.8047 15.9957 13.539 16.0084 13.2738C16.0149 13.2031 16.0275 13.1332 16.046 13.0648C16.1321 12.7721 16.32 12.5221 16.5738 12.3624C16.6636 12.3046 16.7593 12.2569 16.8591 12.2202C17.4604 11.9972 18.2565 12.1184 18.6836 12.5942C18.8733 12.8114 18.9817 13.0909 18.9893 13.3827L18.962 14.1114ZM15.3148 7.90228C15.2665 7.86065 15.2266 7.80965 15.1974 7.75218C15.1682 7.69471 15.1504 7.63189 15.1448 7.56732C15.1393 7.50275 15.1461 7.43769 15.165 7.37585C15.184 7.31401 15.2145 7.25661 15.255 7.20691C15.2955 7.15722 15.3451 7.11621 15.401 7.08623C15.457 7.05624 15.5181 7.03787 15.5809 7.03217C15.6437 7.02646 15.707 7.03353 15.7672 7.05297C15.8273 7.0724 15.8832 7.10383 15.9315 7.14545C16.0289 7.22974 16.1023 7.29647 16.1638 7.3509C16.2253 7.40534 16.3056 7.48787 16.3859 7.56689C16.6754 7.85913 16.9427 8.17379 17.1854 8.50809C17.4276 8.84213 17.6451 9.19431 17.8362 9.56167C17.8958 9.6781 17.908 9.81409 17.87 9.93972C17.832 10.0653 17.7471 10.1703 17.6338 10.2316C17.5205 10.2928 17.3883 10.3053 17.266 10.2663C17.1438 10.2273 17.0417 10.1399 16.9821 10.0235C16.8167 9.6996 16.6259 9.39011 16.4115 9.09809C16.2007 8.80725 15.9683 8.53367 15.7163 8.27981C15.6599 8.22011 15.5933 8.15865 15.5215 8.09017L15.3216 7.91457L15.3148 7.90228ZM12.9352 19.6374C13.0564 19.5958 13.1887 19.6053 13.3031 19.6639C13.4174 19.7225 13.5045 19.8254 13.545 19.95C13.5856 20.0746 13.5763 20.2106 13.5193 20.3282C13.4623 20.4457 13.3621 20.5352 13.241 20.5769C12.8362 20.7174 12.4208 20.8231 11.999 20.893C10.7074 21.1099 9.38363 20.9959 8.14512 20.5611C8.02927 20.5143 7.93544 20.4234 7.88317 20.3073C7.83089 20.1911 7.8242 20.0588 7.86448 19.9377C7.90477 19.8167 7.98892 19.7162 8.09943 19.6574C8.20994 19.5985 8.33828 19.5857 8.45774 19.6216C9.54529 20.0033 10.7075 20.104 11.8419 19.9149C12.2132 19.8538 12.5789 19.761 12.9352 19.6374ZM14.4726 15.7216C14.4492 15.7462 14.4213 15.7658 14.3906 15.7796C14.3596 15.7951 14.326 15.804 14.2915 15.8059C14.2547 15.8097 14.2174 15.8055 14.1822 15.7936C14.1468 15.7829 14.1142 15.7643 14.0866 15.7392L13.4135 15.1702L13.1367 15.8568C13.1152 15.9116 13.0883 15.9639 13.0565 16.0131C13.0276 16.0585 12.9932 16.0998 12.954 16.136C12.925 16.1624 12.8928 16.1848 12.8583 16.2028C12.826 16.2191 12.7914 16.2304 12.7558 16.2361C12.7152 16.244 12.6734 16.244 12.6328 16.2361C12.5925 16.2234 12.5549 16.2032 12.5218 16.1764C12.4912 16.1511 12.4642 16.1215 12.4415 16.0886C12.4172 16.0525 12.3961 16.0143 12.3783 15.9745C11.8658 14.7822 11.2508 13.5003 10.7913 12.2992C10.7855 12.2834 10.7815 12.2669 10.7793 12.2501C10.7776 12.2337 10.7776 12.2172 10.7793 12.2009C10.7813 12.1812 10.7853 12.1618 10.7913 12.1429C10.7981 12.124 10.8066 12.1058 10.8169 12.0885C10.8227 12.0811 10.829 12.0741 10.8357 12.0674C10.8417 12.0607 10.8486 12.0548 10.8562 12.0499C10.8682 12.0395 10.8814 12.0307 10.8955 12.0235C10.9089 12.0165 10.9233 12.0118 10.9382 12.0095C10.9512 12.0078 10.9644 12.0078 10.9775 12.0095C10.9916 12.0077 11.006 12.0077 11.0202 12.0095H11.0355C12.2997 12.3185 13.5638 12.6838 14.8194 13.0262C14.8605 13.0376 14.9006 13.0529 14.939 13.0719C14.9738 13.0893 15.006 13.1118 15.0347 13.1386C15.066 13.1678 15.0916 13.2029 15.1098 13.2422C15.1273 13.2807 15.1366 13.3226 15.1372 13.3651C15.1388 13.4021 15.1335 13.439 15.1218 13.474C15.1112 13.512 15.0951 13.5481 15.0739 13.5811C15.0457 13.6269 15.0112 13.6683 14.9714 13.704C14.9288 13.7443 14.8825 13.7801 14.8331 13.8111C14.6264 13.9358 14.4214 14.0675 14.2164 14.1957L14.8877 14.7681C14.9157 14.793 14.9384 14.8235 14.9544 14.8577C14.9699 14.8901 14.9792 14.9252 14.9817 14.9613C14.9851 14.9985 14.9816 15.036 14.9714 15.0719C14.9605 15.1073 14.9437 15.1406 14.9219 15.1702C14.7793 15.3598 14.6271 15.5415 14.4658 15.7146L14.4726 15.7216ZM14.2608 15.453L14.6417 14.9929L13.8337 14.2905L13.8201 14.2765L13.8047 14.2536C13.7838 14.2152 13.7777 14.17 13.7876 14.1272C13.7922 14.1056 13.8011 14.0853 13.8138 14.0675C13.8264 14.0497 13.8425 14.0347 13.8611 14.0236C14.1241 13.8726 14.4009 13.697 14.664 13.5214C14.6928 13.5032 14.7203 13.4826 14.746 13.4599C14.765 13.4413 14.7822 13.4207 14.7972 13.3985C14.8019 13.3922 14.8054 13.3851 14.8075 13.3774L14.7852 13.3651C14.7689 13.3571 14.7517 13.3512 14.734 13.3475L11.1893 12.3853L12.6789 15.8305C12.6864 15.8474 12.6949 15.8639 12.7045 15.8797L12.7182 15.8972L12.737 15.8814C12.7561 15.8632 12.7727 15.8426 12.7865 15.82C12.805 15.7906 12.8204 15.7594 12.8327 15.7269L13.1897 14.8278C13.1915 14.8215 13.1944 14.8155 13.1982 14.8103L13.2119 14.7927C13.2409 14.7608 13.2804 14.7412 13.3227 14.7376C13.3651 14.734 13.4072 14.7468 13.4408 14.7734L14.2608 15.453ZM10.0055 16.712C9.47758 16.2697 9.00938 15.7572 8.61319 15.1878H7.47547C7.58434 15.3408 7.70487 15.4847 7.83592 15.618C8.00441 15.7915 8.18924 15.9474 8.3877 16.0833C8.59053 16.222 8.80626 16.3397 9.03172 16.4345C9.25857 16.5364 9.49499 16.6141 9.73725 16.6663C9.82608 16.6839 9.91833 16.6997 10.0089 16.712H10.0055ZM7.23802 14.819H8.38258C8.07598 14.2895 7.90004 13.6909 7.87009 13.0754H6.74262C6.75195 13.2735 6.77536 13.4707 6.81266 13.6654C6.85973 13.9174 6.93304 14.1635 7.03132 14.3994C7.0923 14.5461 7.16131 14.6891 7.23802 14.8278V14.819ZM6.74262 12.7119H7.88034C7.93435 12.0939 8.12671 11.4971 8.44236 10.9682H7.23802C7.16131 11.1069 7.0923 11.2499 7.03132 11.3967C6.93442 11.6284 6.86059 11.8696 6.81095 12.1166C6.77318 12.3111 6.75034 12.5084 6.74262 12.7066V12.7119ZM7.47377 10.6047H8.66957C9.06056 10.0415 9.51595 9.5286 10.0259 9.07702C9.92345 9.08931 9.82608 9.10512 9.72871 9.12443C9.48694 9.17403 9.25101 9.24997 9.02489 9.35095C8.80028 9.44766 8.58472 9.56521 8.38087 9.70215C8.18241 9.8381 7.99758 9.99398 7.82909 10.1675C7.69766 10.2998 7.5771 10.4432 7.46864 10.5959L7.47377 10.6047ZM10.9467 9.07702C11.4556 9.52351 11.9099 10.0318 12.2997 10.5907H13.4955C13.244 10.2403 12.9353 9.93727 12.5833 9.69512C12.38 9.55709 12.1644 9.43948 11.9392 9.34393C11.7147 9.24625 11.4812 9.17213 11.2423 9.12268C11.1432 9.10336 11.0441 9.08756 10.9467 9.07527V9.07702ZM10.6683 9.30705V10.5942H11.8641C11.5094 10.1242 11.1087 9.69291 10.6683 9.30705ZM10.3078 16.4907V15.1878H9.05393C9.42067 15.6712 9.84153 16.1085 10.3078 16.4907ZM10.3078 14.819V13.0754H8.23225C8.2683 13.6981 8.46462 14.2999 8.80111 14.819H10.3078ZM10.3078 12.7119V10.9612H8.86431C8.51935 11.4806 8.30458 12.0796 8.23908 12.7049L10.3078 12.7119ZM10.3078 10.6047V9.30705C9.86742 9.69291 9.46672 10.1242 9.11201 10.5942L10.3078 10.6047Z" fill="#939292"/>
</svg>
